<svg width="79" height="117" viewBox="0 0 79 117" fill="none" xmlns="http://www.w3.org/2000/svg">
<path fill-rule="evenodd" clip-rule="evenodd" d="M57.7252 63.3348C58.8381 72.3965 49.9208 76.3661 43.3101 70.7974C37.441 65.8521 37.6321 58.3371 39.779 51.6286C47.6433 51.4233 56.6783 54.8118 57.7252 63.3348M4.39265 115.776C4.63831 115.645 4.50401 115.226 4.22972 115.257C1.90868 115.512 3.93273 101.133 4.13696 99.19C4.57001 95.0792 5.17281 90.9803 6.09466 86.9488C8.01656 78.5397 11.3652 70.3843 17.0369 63.7924C21.3949 58.73 27.0383 54.5696 33.4865 52.6608C31.9725 59.0196 32.2649 65.8339 36.2447 71.3005C39.8945 76.3127 46.317 80.1211 52.6705 78.78C59.4546 77.3469 63.3335 70.6859 62.9876 64.0321C62.5839 56.2583 56.5549 50.4227 49.4452 48.0999C46.8487 47.252 44.2421 46.84 41.6658 46.7869C48.0668 31.9695 58.7373 16.5127 72.4712 8.12319C72.5684 8.06455 72.6426 7.99386 72.7278 7.93008C72.7237 10.391 72.8316 12.8641 73.574 15.1205C74.2426 17.1556 77.2748 17.0532 77.7385 14.9306C78.5653 11.1653 77.6796 7.01304 77.3823 3.19418C77.2666 1.6861 75.8322 0.656764 74.3655 1.08635C67.7185 3.03229 60.9563 4.74313 54.4923 7.23713C53.0547 7.79248 53.2665 10.3346 54.9963 10.0752C57.3365 9.7252 59.6605 9.27648 61.976 8.78154C56.8554 13.1204 52.4658 18.2498 48.5632 23.8096C43.4618 31.0808 38.3735 39.0392 35.1699 47.4138C24.7577 49.632 15.4117 57.3694 9.90141 66.3947C4.29944 75.5696 2.25399 86.6141 1.46534 97.1859C1.31394 99.2268 -0.649678 118.46 4.39265 115.776" fill="black" fill-opacity="0.4"/>
</svg>
