<svg width="204" height="158" viewBox="0 0 204 158" fill="none" xmlns="http://www.w3.org/2000/svg">
<path d="M185.805 112.167H146.305C143.805 112.167 146.542 110.364 148.805 108.667C150.805 107.167 152.805 106.667 155.805 106.667H184.805C192.305 106.667 191.948 106.167 190.805 110.167C190.309 111.9 189.311 112.167 185.805 112.167Z" fill="#2E70D7"/>
<path d="M169.942 9.66681C147.309 13.4391 155.942 69.6667 151.942 70.6667C147.067 71.8855 143.811 68.6667 142.811 67.1667C139.577 62.3152 138.942 47.6668 137.942 41.6668C136.942 35.6668 135.415 28.7327 131.942 29.1668C127.942 29.6667 126.228 36.38 125.942 38.6668C125.442 42.6668 126.311 57.6667 128.311 65.6667C129.811 73.6668 137.573 81.6668 146.311 83.6668C152.311 85.04 152.114 86.7072 152.311 87.1668C153.811 90.6668 151.942 101.667 152.442 108.167C153.442 111.667 169.442 111.167 169.942 108.667C170.236 107.196 168.311 93.1668 172.811 81.6668C175.861 73.8721 180.639 72.5041 187.311 67.1667C194.811 61.1667 196.775 51.5001 197.442 45.1667C197.863 41.1667 198.442 33.8334 195.442 33.1667C191.842 32.3668 189.242 35.1667 188.442 39.1667C186.942 46.6667 183.311 57.6668 176.311 59.1668C172.311 58.1667 187.942 6.66675 169.942 9.66681Z" fill="#BFD9F7"/>
<path d="M175.442 13.6667C167.442 8.16675 157.642 15.4667 156.442 66.6667" stroke="#2E70D7" stroke-linecap="round"/>
<path d="M133.442 33.2118C125.442 30.6667 130.442 64.6667 133.442 68.1667" stroke="#2E70D7" stroke-linecap="round"/>
<path d="M135.942 47.6667C136.442 66.1668 140.942 74.6667 153.442 77.1217" stroke="#2E70D7" stroke-linecap="round"/>
<path d="M165.942 40.1667C165.942 59.6667 163.442 63.1667 162.442 75.6667" stroke="#2E70D7" stroke-linecap="round"/>
<path d="M173.942 19.6667C173.942 34.1667 173.942 33.6667 172.942 46.1667" stroke="#2E70D7" stroke-linecap="round"/>
<path d="M165.442 80.6667C165.442 95.1667 165.442 94.6667 164.442 107.167" stroke="#2E70D7" stroke-linecap="round"/>
<path d="M190.442 55.6667C186.942 64.1667 181.942 63.6667 176.942 69.1667" stroke="#2E70D7" stroke-linecap="round"/>
<path d="M195.311 34.6667C188.811 35.1667 190.811 45.6667 184.811 53.6667" stroke="#2E70D7" stroke-linecap="round"/>
<path d="M201.942 43.1667C199.529 43.6787 198.164 42.9738 197.942 42.6667C197.383 41.8933 199.489 39.874 200.942 39.1667" stroke="#2E70D7" stroke-linecap="round"/>
<path d="M130.311 26.1667C130.811 28.1667 130.727 29.3594 129.995 29.9722C129.263 30.5849 127.311 29.6667 126.311 27.6667" stroke="#2E70D7" stroke-linecap="round"/>
<path d="M149.942 46.6667C151.942 47.6667 152.655 48.9815 153.005 49.8696C153.042 49.9634 153.065 50.063 153.075 50.1667M150.942 52.6667C152.284 52.2196 153.075 51.1667 153.075 50.1667M153.075 50.1667C151.942 49.6667 149.942 49.1667 148.942 49.6667" stroke="#2E70D7" stroke-linecap="round"/>
<path d="M124.442 67.3613C126.442 66.8613 127.715 66.998 128.442 67.3613C129.169 67.7247 127.837 70.0489 125.942 70.8613" stroke="#2E70D7" stroke-linecap="round"/>
<path d="M168.126 5.10962C168.978 7.10962 168.858 9.3594 168.126 9.97215C167.394 10.5849 164.478 8.60962 163.978 6.60962" stroke="#2E70D7" stroke-linecap="round"/>
<path d="M49.6277 85.9289H18.5876C16.623 85.9289 18.774 84.5121 20.5522 83.1785C22.1238 81.9997 23.6954 81.6068 26.0529 81.6068H48.8418C54.7356 81.6068 54.4549 81.2139 53.5568 84.3572C53.1676 85.7194 52.3831 85.9289 49.6277 85.9289Z" fill="#2E70D7"/>
<path d="M37.1622 5.38175C19.3762 8.34613 26.1606 52.5313 23.0173 53.3171C19.1864 54.2748 16.6279 51.7454 15.842 50.5667C13.3003 46.7542 12.8015 35.2431 12.0157 30.5282C11.2299 25.8132 10.03 20.3642 7.30078 20.7054C4.15758 21.0982 2.8104 26.3736 2.58581 28.1707C2.19297 31.314 2.87586 43.1014 4.44756 49.388C5.62628 55.6746 11.7256 61.9612 18.5924 63.5328C23.3073 64.612 23.1526 65.9221 23.3073 66.2832C24.4861 69.0336 23.0173 77.6777 23.4102 82.7856C24.196 85.536 36.7692 85.1431 37.1621 83.1785C37.3933 82.0226 35.8806 70.9982 39.4168 61.9612C41.8136 55.836 45.5685 54.761 50.8113 50.5667C56.705 45.8517 58.2485 38.2554 58.7723 33.2785C59.1032 30.1352 59.5582 24.3725 57.2007 23.8486C54.3717 23.22 52.3286 25.4203 51.6999 28.5636C50.5212 34.4572 47.668 43.1014 42.1672 44.2801C39.0239 43.4942 51.307 3.02423 37.1622 5.38175Z" fill="#BFD9F7"/>
<path d="M41.4843 8.52501C35.1977 4.20297 27.4966 9.9395 26.5536 50.1738" stroke="#2E70D7" stroke-linecap="round"/>
<path d="M8.47985 23.884C2.1932 21.8841 6.12235 48.6021 8.47984 51.3525" stroke="#2E70D7" stroke-linecap="round"/>
<path d="M10.4443 35.2431C10.8372 49.7809 14.3734 56.4604 24.1963 58.3896" stroke="#2E70D7" stroke-linecap="round"/>
<path d="M34.0192 29.3494C34.0192 44.673 32.0546 47.4234 31.2688 57.2462" stroke="#2E70D7" stroke-linecap="round"/>
<path d="M40.3056 13.24C40.3056 24.6344 40.3056 24.2415 39.5198 34.0644" stroke="#2E70D7" stroke-linecap="round"/>
<path d="M33.6263 61.1754C33.6263 72.5698 33.6263 72.1769 32.8405 81.9998" stroke="#2E70D7" stroke-linecap="round"/>
<path d="M53.2717 41.5297C50.5213 48.2092 46.5922 47.8163 42.6631 52.1384" stroke="#2E70D7" stroke-linecap="round"/>
<path d="M57.098 25.0274C51.9901 25.4203 53.5618 33.6714 48.8468 39.9581" stroke="#2E70D7" stroke-linecap="round"/>
<path d="M62.3088 31.7069C60.4124 32.1091 59.34 31.5553 59.1655 31.314C58.726 30.7062 60.381 29.1194 61.5231 28.5636" stroke="#2E70D7" stroke-linecap="round"/>
<path d="M6.01936 18.3478C6.41229 19.9195 6.34592 20.8567 5.7708 21.3382C5.19568 21.8197 3.6619 21.0982 2.87604 19.5266" stroke="#2E70D7" stroke-linecap="round"/>
<path d="M21.446 34.4573C23.0177 35.2431 23.5781 36.2763 23.853 36.9742C23.8821 37.0479 23.9001 37.1261 23.9076 37.2077M22.2318 39.1722C23.286 38.8208 23.9076 37.9935 23.9076 37.2077M23.9076 37.2077C23.0176 36.8148 21.4459 36.4218 20.6601 36.8148" stroke="#2E70D7" stroke-linecap="round"/>
<path d="M1.40737 50.7196C2.97896 50.3267 3.9796 50.4341 4.55062 50.7196C5.12165 51.0051 4.07499 52.8316 2.58605 53.47" stroke="#2E70D7" stroke-linecap="round"/>
<path d="M35.735 1.80059C36.4046 3.37225 36.3101 5.14018 35.735 5.6217C35.1599 6.10322 32.8683 4.55099 32.4754 2.97933" stroke="#2E70D7" stroke-linecap="round"/>
<path d="M116.768 99.1807C115.624 94.9681 113.733 91.3275 111.297 88.2587M111.297 88.2587C95.7864 68.7225 58.147 72.3632 50.0983 99.1807C54.6316 117.119 69.3747 147.888 92.0807 127.462C114.787 107.036 106.173 90.6938 99.0285 85.0761C90.3942 84.6332 78.3496 85.5312 69.6851 89.5835M111.297 88.2587C126.817 91.4412 110.707 127.462 101.837 138.818C92.9676 150.174 78.1112 148.872 61.7765 115.6C55.0254 101.849 60.4249 93.9145 69.6851 89.5835M89.7155 78.6387C70.9417 91.7065 38.1392 121.314 57.12 135.202C80.846 152.561 74.7851 105.953 69.6851 89.5835M75.746 81.3872C44.5549 78.6387 33.2906 137.371 57.12 144.315C84.0981 157.118 118.865 128.84 111.297 110.609C111.396 96.3039 105.444 69.8828 80.846 78.6387" stroke="#2E70D7" stroke-width="3"/>
<path d="M104.746 140.73C108.447 138.306 111.354 135.376 113.531 132.126M113.531 132.126C127.39 111.435 111.673 77.7688 83.1393 79.0085C67.2674 89.0188 42.3 112.64 69.405 127.041C96.51 141.442 109.517 128.171 112.632 119.736C110.262 111.599 105.49 100.74 98.7648 94.0314M113.531 132.126C115.484 147.526 75.4413 144.284 61.5889 139.753C47.7364 135.222 44.1803 121.047 71.0514 95.1411C82.157 84.4346 91.5769 86.862 98.7648 94.0314M115.837 109.028C97.1197 95.8827 57.867 75.11 50.593 97.1828C41.5005 124.774 84.5928 104.058 98.7648 94.0314M108.652 96.9862C101.201 67.2191 40.7726 75.8251 41.7826 100.136C38.1493 129.261 76.7527 152.283 91.9248 139.369C105.786 134.824 129.399 120.752 112.962 100.817" stroke="#2E70D7" stroke-width="3"/>
<path d="M153.019 149.111C151.019 151.111 133.767 151.111 110.019 151.111C86.2703 151.111 71.5186 151.111 70.5186 149.111C71.0186 147.613 86.2703 147.111 110.019 147.111C133.767 147.111 152.019 147.111 153.019 149.111Z" fill="#2E70D7"/>
</svg>
